<?xml version="1.0" encoding="UTF-8"?>
<!DOCTYPE svg PUBLIC "-//W3C//DTD SVG 1.1//EN" "http://www.w3.org/Graphics/SVG/1.1/DTD/svg11.dtd">
<!-- Creator: CorelDRAW Standard 2020 -->
<svg xmlns="http://www.w3.org/2000/svg" xml:space="preserve" width="210mm" height="297mm" version="1.1" style="shape-rendering:geometricPrecision; text-rendering:geometricPrecision; image-rendering:optimizeQuality; fill-rule:evenodd; clip-rule:evenodd"
viewBox="0 0 21000 29700"
 xmlns:xlink="http://www.w3.org/1999/xlink"
 xmlns:xodm="http://www.corel.com/coreldraw/odm/2003">
 <defs>
  <style type="text/css">
   <![CDATA[
    .fil0 {fill:white}
   ]]>
  </style>
 </defs>
 <g id="Слой_x0020_1">
  <metadata id="CorelCorpID_0Corel-Layer"/>
  <g id="_1072369864">
   <path class="fil0" d="M-8036.44 4090.81c0,860.63 185.37,1473.64 766.98,2055.24 341.09,341.1 1040.07,766.98 1702.47,766.98l32102.78 0c1229.61,0 2469.45,-1239.84 2469.45,-2469.45 0,-860.63 -185.37,-1473.64 -766.98,-2055.24 -341.09,-341.1 -1040.07,-766.98 -1702.47,-766.98l-32102.78 0c-1229.61,0 -2469.45,1239.84 -2469.45,2469.45z"/>
   <path class="fil0" d="M-8036.44 25257.48c0,860.63 185.37,1473.64 766.98,2055.24 341.09,341.1 1040.07,766.98 1702.47,766.98l32102.78 0c1229.61,0 2469.45,-1239.84 2469.45,-2469.45 0,-860.63 -185.37,-1473.64 -766.98,-2055.24 -341.09,-341.1 -1040.07,-766.98 -1702.47,-766.98l-32102.78 0c-1229.61,0 -2469.45,1239.84 -2469.45,2469.45z"/>
   <path class="fil0" d="M-8036.44 14674.14c0,860.64 185.37,1473.64 766.98,2055.25 341.09,341.09 1040.07,766.97 1702.47,766.97l32102.78 0c1229.61,0 2469.45,-1239.84 2469.45,-2469.44 0,-860.64 -185.37,-1473.64 -766.98,-2055.25 -341.09,-341.09 -1040.07,-766.97 -1702.47,-766.97l-32102.78 0c-1229.61,0 -2469.45,1239.84 -2469.45,2469.44z"/>
  </g>
 </g>
</svg>
